# xmcd
#
# Track frame offsets: 
#        150
#        52497
#        65164
#        89405
#        122957
#        133772
#        168784
#        218019
#
# Disc length: 3380 seconds
#
# Revision: 0
# Processed by: cddbd v1.5.2PL0 Copyright (c) Steve Scherf et al.
# Submitted via: ExactAudioCopyFreeDBPlugin 1.0
#
DISCID=7d0d3208
DTITLE=Wiley Reed - Wiley Reed Live
DYEAR=2012
DGENRE=Blues
TTITLE0=Snatch It Back
TTITLE1=Sweet Home Chicago
TTITLE2=Tobacco Road
TTITLE3=Hold On I'm Coming
TTITLE4=I Feel Good
TTITLE5=Caladonia
TTITLE6=Boom Boom
TTITLE7=Miss You
EXTD=
EXTT0=
EXTT1=
EXTT2=
EXTT3=
EXTT4=
EXTT5=
EXTT6=
EXTT7=
PLAYORDER=
